<?xml version="1.0" encoding="utf-8"?>
<!-- Generator: Adobe Illustrator 23.0.3, SVG Export Plug-In . SVG Version: 6.00 Build 0)  -->
<svg version="1.1" id="Ebene_1" xmlns="http://www.w3.org/2000/svg" xmlns:xlink="http://www.w3.org/1999/xlink" x="0px" y="0px"
	 viewBox="0 0 800 450" style="enable-background:new 0 0 800 450;" xml:space="preserve">
<style type="text/css">
	.st0{fill:#FFFFFF;}
	.st1{fill:#FF0000;}
	.st2{fill:#FFCC00;}
</style>
<rect y="0" class="st0" width="800" height="450"/>
<g id="Name" transform="scale(1,-1) translate(0,-104)">
	<path d="M276.3-1v45.7h22.4l-0.3-4.5h-16.3V23.3h15v-4.5h-15V-0.9h-5.8V-1z M324.6,20c0-1.4,0-2.6-0.1-3.5c-0.1-1-0.2-1.9-0.2-2.6
		h-16.2c0.2-3.7,0.9-6.5,2.4-8.3c1.4-1.7,3.5-2.7,6.2-2.7c0.9,0,1.7,0.1,2.6,0.3c0.7,0.2,1.4,0.5,2,0.8c0.6,0.3,1,0.6,1.4,0.9
		c0.3,0.3,0.7,0.6,0.8,0.7l2-3.7c-0.2-0.2-0.6-0.6-1-0.9c-0.5-0.5-1-0.8-1.7-1.3c-0.7-0.5-1.6-0.8-2.8-1c-1-0.3-2.4-0.5-4-0.5
		c-2,0-3.8,0.3-5.3,1c-1.6,0.7-3,1.7-4.1,3c-1.2,1.4-2,3.1-2.6,5.3c-0.6,2.1-0.9,4.8-0.9,7.7c0,2.8,0.3,5.2,0.9,7.3
		c0.7,2.1,1.5,3.7,2.6,5.1c1,1.3,2.3,2.3,3.8,2.9c1.5,0.7,3,0.9,4.6,0.9c3,0,5.5-0.9,7.1-2.9C323.7,26.7,324.6,23.9,324.6,20z
		 M314.5,27.1c-1.9,0-3.4-0.8-4.5-2.3c-1.2-1.6-1.9-3.8-2-6.9h11.6c0,0.2,0.1,0.6,0.1,0.9c0,0.5,0,0.8,0,1.4c0,2.2-0.5,4-1.3,5.1
		C317.5,26.6,316.2,27.1,314.5,27.1z M330.3,14.3c0,3.3,0.5,5.9,1.3,8c0.8,2.2,2,4,3.3,5.2c1.3,1.3,2.8,2.2,4.5,2.8
		c1.6,0.6,3.4,0.8,5,0.8c1,0,1.9-0.1,2.7-0.2c0.7-0.1,1.4-0.3,1.9-0.6v15.2l5.3,0.6V-1.2h-4.9v3.4h-0.1c-0.1-0.2-0.3-0.6-0.7-1
		c-0.3-0.5-0.8-0.9-1.5-1.4c-0.6-0.5-1.4-0.8-2.3-1.2s-2-0.5-3.3-0.5c-1.5,0-2.9,0.3-4.3,0.9c-1.4,0.6-2.6,1.5-3.5,2.8
		c-1,1.3-1.9,3-2.4,5C330.5,9,330.3,11.4,330.3,14.3z M342.8,3c0.8,0,1.6,0.1,2.2,0.3c0.7,0.2,1.3,0.5,1.7,0.8
		c0.5,0.3,0.9,0.7,1.3,1c0.3,0.3,0.6,0.7,0.8,0.9v19.6c-0.5,0.3-1,0.6-1.7,0.8c-0.7,0.2-1.4,0.3-2.4,0.3c-1.3,0-2.4-0.2-3.5-0.6
		c-1-0.5-2-1.2-2.8-2.1c-0.8-0.9-1.4-2.2-1.9-3.7c-0.5-1.5-0.7-3.5-0.7-5.7s0.2-4.1,0.6-5.6s0.9-2.7,1.5-3.6c0.7-0.9,1.4-1.5,2.2-2
		C341,3.1,341.9,3,342.8,3z M382.7,20c0-1.4,0-2.6-0.1-3.5c-0.1-1-0.2-1.9-0.2-2.6h-16.2c0.2-3.7,0.9-6.5,2.4-8.3
		c1.4-1.7,3.5-2.7,6.2-2.7c0.9,0,1.7,0.1,2.6,0.3c0.7,0.2,1.4,0.5,2,0.8c0.6,0.3,1,0.6,1.4,0.9c0.3,0.3,0.7,0.6,0.8,0.7l2-3.7
		c-0.2-0.2-0.6-0.6-1-0.9c-0.5-0.5-1-0.8-1.7-1.3s-1.6-0.8-2.8-1c-1-0.3-2.4-0.5-4-0.5c-2,0-3.8,0.3-5.3,1c-1.6,0.7-3,1.7-4.1,3
		c-1.2,1.4-2,3.1-2.6,5.3c-0.6,2.1-0.9,4.8-0.9,7.7c0,2.8,0.3,5.2,0.9,7.3c0.7,2.1,1.5,3.7,2.6,5.1c1,1.3,2.3,2.3,3.8,2.9
		c1.5,0.7,3,0.9,4.6,0.9c3,0,5.5-0.9,7.1-2.9C381.9,26.7,382.7,23.9,382.7,20z M372.7,27.1c-1.9,0-3.4-0.8-4.5-2.3
		c-1.2-1.6-1.9-3.8-2-6.9h11.6c0,0.2,0.1,0.6,0.1,0.9c0,0.5,0,0.8,0,1.4c0,2.2-0.5,4-1.3,5.1C375.6,26.6,374.3,27.1,372.7,27.1z
		 M403.9,26c-0.1,0.1-0.5,0.2-0.8,0.3c-0.5,0.1-1,0.2-1.7,0.2c-1.6,0-3-0.5-4-1.4c-0.9-0.9-1.6-1.9-2-2.9V-1H390v31.7h4.9v-4.3h0.1
		c0.2,0.6,0.5,1.3,0.8,1.9c0.3,0.6,0.8,1.2,1.3,1.6c0.6,0.5,1.2,0.8,1.9,1c0.7,0.2,1.6,0.3,2.6,0.3c0.7,0,1.4-0.1,1.9-0.2
		s0.8-0.2,1-0.3L403.9,26z M407,7c0,1.9,0.3,3.4,1,4.6s1.6,2.2,2.8,3s2.6,1.3,4.2,1.6s3.4,0.5,5.1,0.5h1.6v3c0,2.7-0.5,4.5-1.4,5.6
		c-0.9,1-2.3,1.5-4,1.5s-2.9-0.3-4-1c-1-0.7-1.9-1.3-2.6-1.9l-2.2,3.6c0.3,0.3,0.8,0.7,1.4,1.2c0.6,0.5,1.3,0.8,2,1.3
		c0.8,0.3,1.7,0.7,2.7,1c1,0.2,2.2,0.3,3.5,0.3c3.3,0,5.7-0.9,7.4-2.7c1.6-1.9,2.6-4.8,2.6-8.7V5.5c0-1.4,0-2.7,0.1-4
		s0.2-2.2,0.2-2.6h-5.1l-0.2,3.5h-0.1c-0.2-0.3-0.5-0.8-0.8-1.4c-0.3-0.5-0.8-0.9-1.3-1.4c-0.6-0.5-1.2-0.8-2-1
		c-0.7-0.3-1.6-0.5-2.7-0.5c-1.2,0-2.3,0.2-3.4,0.7c-1,0.5-2,1-2.7,1.9c-0.8,0.8-1.4,1.7-1.7,2.8C407.1,4.6,407,5.7,407,7z
		 M416.5,2.7c0.7,0,1.4,0.1,2,0.3c0.6,0.2,1,0.5,1.5,0.8c0.5,0.3,0.8,0.7,1,1c0.2,0.3,0.6,0.7,0.8,0.9v7l-1.7-0.1
		c-2.6-0.1-4.5-0.6-5.8-1.3c-1.3-0.8-2-2.1-2-3.8c0-1.6,0.3-2.9,1.2-3.7C414.2,3.1,415.2,2.7,416.5,2.7z M440.5,6.3
		c0-1.3,0.2-2.2,0.6-2.8s1-0.8,2-0.8c0.5,0,0.9,0,1.3,0.1c0.3,0.1,0.6,0.2,0.8,0.2l0.5-4c-0.2-0.1-0.7-0.3-1.5-0.6
		c-0.7-0.2-1.6-0.3-2.8-0.3c-1.9,0-3.3,0.6-4.4,1.6c-1,1-1.6,3-1.6,5.9v39.9l5.3,0.6V6.3H440.5z M503.4,44.6V-1.1h-5.6v21.7
		c0,1.4,0,2.7,0,4.1c0,1.3,0,2.6,0,3.7s0,2.2,0.1,3c0,0.9,0.1,1.5,0.1,2.1h-0.2c-0.2-1-0.7-2.7-1.4-4.9c-0.7-2.3-1.5-4.8-2.3-7.3
		L486.6-1h-4.5l-7.6,22.3c-0.9,2.6-1.6,5-2.3,7.3s-1.2,4-1.4,4.9h-0.2c0-0.6,0.1-1.3,0.1-2.1c0-0.9,0.1-1.9,0.1-3s0-2.3,0-3.7
		c0-1.3,0-2.7,0-4.1V-1.1h-5.6v45.7h6.4l10.8-31.5c0.5-1.5,0.9-2.9,1.3-4.3c0.3-1.4,0.6-2.6,0.7-3.6h0.1c0,1,0.2,2.2,0.6,3.6
		s0.8,2.8,1.3,4.2l10.8,31.6L503.4,44.6L503.4,44.6z M518.2-1h-5.3v31.7h5.3V-1z M515.5,38.4c-1,0-2,0.3-2.7,1c-0.7,0.7-1,1.6-1,2.8
		c0,1,0.3,2,1,2.7c0.7,0.7,1.5,1,2.7,1c1,0,2-0.3,2.6-1c0.7-0.7,1-1.6,1-2.7c0-1.2-0.3-2.1-1-2.8C517.4,38.8,516.6,38.4,515.5,38.4z
		 M543.6-1v20.3c0,2.7-0.5,4.6-1.4,5.8c-0.9,1.2-2.3,1.7-4.2,1.7c-1.6,0-2.9-0.3-4-1.2s-1.9-1.5-2.6-2.3V-1.1h-5.3v31.7h4.9V27h0.1
		c0.1,0.2,0.5,0.7,0.8,1.2c0.5,0.5,1,1,1.7,1.5c0.7,0.5,1.5,0.8,2.6,1.3c0.9,0.3,2.1,0.6,3.3,0.6c1.4,0,2.7-0.2,3.8-0.6
		c1.2-0.5,2.1-1,2.9-2c0.8-0.9,1.4-2.1,1.9-3.6c0.5-1.5,0.7-3.3,0.7-5.5V-0.9h-5.2V-1z M562.5-1h-5.3v31.7h5.3V-1z M559.8,38.4
		c-1,0-2,0.3-2.7,1s-1,1.6-1,2.8c0,1,0.3,2,1,2.7c0.7,0.7,1.5,1,2.7,1c1,0,2-0.3,2.6-1c0.7-0.7,1-1.6,1-2.7c0-1.2-0.3-2.1-1-2.8
		C561.7,38.8,560.8,38.4,559.8,38.4z M584.3,24.3c-0.3,0.3-1,0.9-2,1.6c-0.9,0.7-2.1,1-3.6,1c-1.4,0-2.4-0.3-3.3-1
		c-0.7-0.7-1.2-1.5-1.2-2.3c0-1.2,0.3-2.2,1-2.9c0.7-0.8,1.7-1.6,3.1-2.4l2-1.2c2.2-1.3,3.8-2.7,5.1-4.2c1.3-1.5,1.9-3.4,1.9-5.7
		c0-2.6-0.8-4.6-2.6-6.4c-1.7-1.7-4.3-2.6-7.6-2.6c-1.3,0-2.4,0.1-3.4,0.3c-0.9,0.2-1.9,0.6-2.6,0.9c-0.7,0.3-1.3,0.7-1.9,1.2
		c-0.5,0.5-0.9,0.8-1.2,1.2l2.6,4.2c0.2-0.2,0.6-0.6,0.9-0.9c0.3-0.3,0.8-0.7,1.4-1c0.6-0.3,1.2-0.6,1.7-0.8
		c0.7-0.2,1.4-0.3,2.3-0.3c1.6,0,2.8,0.3,3.6,1c0.8,0.7,1.3,1.5,1.3,2.6c0,0.7-0.1,1.4-0.3,2s-0.5,1-0.9,1.5
		c-0.3,0.5-0.9,0.8-1.5,1.3c-0.6,0.3-1.3,0.8-2,1.3l-2,1.3c-2,1.3-3.5,2.7-4.6,4.1c-1.2,1.4-1.7,3.3-1.7,5.5c0,1.2,0.2,2.3,0.7,3.3
		c0.5,1,1.2,1.9,2,2.6c0.8,0.7,1.9,1.3,2.9,1.7c1.2,0.5,2.3,0.6,3.6,0.6c1.3,0,2.3-0.1,3.1-0.3c0.9-0.2,1.6-0.6,2.3-0.9
		c0.7-0.3,1.2-0.7,1.6-1.2c0.5-0.3,0.8-0.7,1-0.9L584.3,24.3z M607.3,26.3h-7V8.8c0-2.2,0.2-3.8,0.8-4.6c0.6-0.8,1.5-1.3,2.9-1.3
		c0.8,0,1.5,0.1,2.1,0.3c0.6,0.2,1,0.5,1.3,0.6l0.7-4.3c-0.2-0.2-0.7-0.5-1.6-0.8c-0.8-0.3-2-0.6-3.4-0.6c-2.8,0-4.8,0.8-6.2,2.3
		c-1.4,1.5-2.1,4.1-2.1,7.6v18.4h-3.8v3.6l3.8,0.8l0.6,8.8h4.8v-8.8h7.6L607.3,26.3z M627.4,26c-0.1,0.1-0.5,0.2-0.8,0.3
		c-0.5,0.1-1,0.2-1.7,0.2c-1.6,0-3-0.5-4-1.4c-0.9-0.9-1.6-1.9-2-2.9V-1h-5.3v31.7h4.9v-4.3h0.1c0.2,0.6,0.5,1.3,0.8,1.9
		c0.3,0.6,0.8,1.2,1.3,1.6c0.5,0.5,1.2,0.8,1.9,1c0.7,0.2,1.6,0.3,2.6,0.3c0.7,0,1.4-0.1,1.9-0.2c0.5-0.1,0.8-0.2,1-0.3L627.4,26z
		 M653.8,30.7l-9.9-33.6c-1.2-3.8-2.6-6.9-4.2-8.8c-1.6-2-4.1-3-7.2-3c-0.7,0-1.2,0.1-1.6,0.2s-0.7,0.2-0.9,0.3v4.6
		c0.2-0.1,0.5-0.2,0.8-0.3c0.3-0.1,0.8-0.1,1.4-0.1c1.9,0,3.4,0.6,4.3,1.7s1.9,3,2.6,5.5l0.5,1.6l-10.2,31.7h5.8l5-17.5
		c0.5-1.9,0.9-3.5,1.3-5.1c0.3-1.5,0.7-3,0.7-4.2h0.1c0.1,1.3,0.3,2.7,0.6,4.2c0.3,1.5,0.7,3.3,1.3,5l4.5,17.7h5.2V30.7z
		 M288.5-40.4H282v-27.4h-5.3v27.4h-3.7v3.6l3.8,0.7v6.4c0,1.7,0.2,3.3,0.7,4.4c0.5,1.3,1.2,2.2,2,3c0.8,0.8,1.7,1.4,2.8,1.7
		s2.2,0.6,3.4,0.6c1.2,0,2.1-0.1,2.9-0.5c0.8-0.3,1.3-0.6,1.6-0.7l-1.2-4.4c-0.2,0.2-0.7,0.3-1.2,0.6c-0.5,0.2-1,0.3-1.7,0.3
		c-1.3,0-2.2-0.3-2.9-1.2c-0.7-0.8-1-2.2-1-4.4v-5.7h7.1L288.5-40.4z M291.7-51.9c0,2.9,0.3,5.5,1,7.6c0.7,2.1,1.6,3.8,2.8,5.2
		c1.2,1.4,2.6,2.3,4.1,3s3.1,0.9,4.9,0.9c1.7,0,3.4-0.3,4.9-0.9c1.5-0.7,2.8-1.6,4-3c1-1.4,2-3,2.6-5.2c0.7-2.1,0.9-4.6,0.9-7.6
		s-0.3-5.5-1-7.6c-0.7-2.1-1.6-3.8-2.8-5.2c-1.2-1.4-2.6-2.3-4.1-2.9c-1.5-0.6-3.1-0.9-4.9-0.9c-1.7,0-3.4,0.3-4.9,0.9
		s-2.8,1.6-4,2.9c-1,1.4-2,3-2.6,5.1C292.1-57.5,291.7-54.9,291.7-51.9z M311.2-51.9c0,4.2-0.6,7.3-1.9,9.2c-1.3,2-2.9,2.9-5.1,2.9
		c-2.2,0-4-0.9-5.1-2.9c-1.2-2-1.9-5-1.9-9.2c0-4.2,0.6-7.3,1.9-9.2c1.3-1.9,2.9-2.8,5.1-2.8c2.2,0,4,0.9,5.1,2.8
		C310.7-59.2,311.2-56.1,311.2-51.9z M337.5-40.7c-0.1,0.1-0.5,0.2-0.8,0.3c-0.5,0.1-1,0.2-1.7,0.2c-1.6,0-3-0.5-4-1.4
		c-0.9-0.9-1.6-1.9-2-2.9v-23.2h-5.3V-36h4.9v-4.3h0.1c0.2,0.6,0.5,1.3,0.8,1.9c0.3,0.6,0.8,1.2,1.3,1.6c0.6,0.5,1.2,0.8,1.9,1
		s1.6,0.3,2.6,0.3c0.7,0,1.4-0.1,1.9-0.2c0.5-0.1,0.8-0.2,1-0.3L337.5-40.7z M378.5-26.7h-16.3v-15.8h15V-47h-15v-16h17.9l-0.3-4.8
		h-23.4v45.7h22.4L378.5-26.7z M403.9-42.1c-0.1,0.1-0.3,0.3-0.6,0.6c-0.2,0.2-0.7,0.6-1,0.8c-0.5,0.2-0.9,0.5-1.6,0.7
		c-0.6,0.2-1.3,0.3-2.1,0.3c-1.2,0-2.2-0.2-3.3-0.6c-1-0.5-1.9-1-2.6-2s-1.3-2.1-1.7-3.6s-0.6-3.3-0.6-5.3c0-2.3,0.2-4.3,0.6-5.9
		c0.3-1.6,0.9-2.9,1.5-3.8c0.7-0.9,1.5-1.6,2.4-2.1c0.9-0.5,2-0.6,3.1-0.6c1.6,0,2.9,0.2,3.7,0.8c0.8,0.6,1.5,1,1.9,1.4l2.2-3.7
		c-0.2-0.2-0.6-0.6-0.9-0.9c-0.5-0.3-0.9-0.7-1.6-1c-0.7-0.3-1.5-0.7-2.4-0.9c-0.9-0.2-2.1-0.3-3.3-0.3c-1.7,0-3.4,0.2-5,0.8
		c-1.5,0.6-2.9,1.5-4.1,2.8c-1.2,1.3-2.1,3-2.7,5.1c-0.7,2.1-1,4.8-1,7.9c0,3,0.3,5.6,1.2,7.8c0.8,2.1,1.9,3.8,3.1,5.1
		c1.3,1.3,2.7,2.2,4.3,2.8c1.5,0.6,3.1,0.9,4.8,0.9c1.2,0,2.2-0.1,3.1-0.3c0.9-0.2,1.6-0.5,2.3-0.8s1.2-0.7,1.6-1
		c0.5-0.3,0.8-0.7,1-0.9L403.9-42.1z M409.8-51.9c0,2.9,0.3,5.5,1,7.6c0.7,2.1,1.6,3.8,2.8,5.2c1.2,1.4,2.6,2.3,4.1,3
		s3.1,0.9,4.9,0.9s3.4-0.3,4.9-0.9c1.5-0.7,2.8-1.6,4-3c1-1.4,2-3,2.6-5.2c0.7-2.1,0.9-4.6,0.9-7.6s-0.3-5.5-1-7.6s-1.6-3.8-2.8-5.2
		c-1.2-1.4-2.6-2.3-4.1-2.9s-3.1-0.9-4.9-0.9s-3.4,0.3-4.9,0.9c-1.5,0.6-2.8,1.6-4,2.9c-1,1.4-2,3-2.6,5.1
		C410.1-57.5,409.8-54.9,409.8-51.9z M429.3-51.9c0,4.2-0.6,7.3-1.9,9.2c-1.3,2-2.9,2.9-5.1,2.9c-2.2,0-4-0.9-5.1-2.9
		c-1.2-2-1.9-5-1.9-9.2c0-4.2,0.6-7.3,1.9-9.2c1.3-1.9,2.9-2.8,5.1-2.8c2.2,0,4,0.9,5.1,2.8C428.7-59.2,429.3-56.1,429.3-51.9z
		 M458.9-67.8v20.5c0,2.7-0.5,4.6-1.4,5.8c-0.9,1.2-2.3,1.7-4.2,1.7c-1.6,0-2.9-0.3-4-1.2c-1-0.8-1.9-1.5-2.6-2.3v-24.5h-5.3v31.7
		h4.9v-3.6h0.1c0.1,0.2,0.5,0.7,0.8,1.2c0.5,0.5,1,1,1.7,1.5c0.7,0.5,1.5,0.8,2.6,1.3c0.9,0.3,2.1,0.6,3.3,0.6
		c1.4,0,2.7-0.2,3.8-0.6c1.2-0.5,2.1-1,2.9-2c0.8-0.9,1.4-2.1,1.9-3.6c0.5-1.5,0.7-3.3,0.7-5.5v-21H458.9z M470.9-51.9
		c0,2.9,0.3,5.5,1,7.6c0.7,2.1,1.6,3.8,2.8,5.2c1.2,1.4,2.6,2.3,4.1,3s3.1,0.9,4.9,0.9s3.4-0.3,4.9-0.9c1.5-0.7,2.8-1.6,4-3
		c1-1.4,2-3,2.6-5.2c0.7-2.1,0.9-4.6,0.9-7.6s-0.3-5.5-1-7.6s-1.6-3.8-2.8-5.2c-1.2-1.4-2.6-2.3-4.1-2.9c-1.5-0.6-3.1-0.9-4.9-0.9
		s-3.4,0.3-4.9,0.9c-1.5,0.6-2.8,1.6-4,2.9c-1,1.4-2,3-2.6,5.1C471.1-57.5,470.9-54.9,470.9-51.9z M490.4-51.9
		c0,4.2-0.6,7.3-1.9,9.2c-1.3,2-2.9,2.9-5.1,2.9s-4-0.9-5.1-2.9c-1.2-2-1.9-5-1.9-9.2c0-4.2,0.6-7.3,1.9-9.2
		c1.3-1.9,2.9-2.8,5.1-2.8s4,0.9,5.1,2.8S490.4-56.1,490.4-51.9z M519.4-67.8v20.5c0,2.6-0.3,4.5-1.2,5.6c-0.7,1.2-2,1.7-3.6,1.7
		c-0.9,0-1.6-0.1-2.3-0.3c-0.7-0.2-1.3-0.5-1.9-0.8c-0.6-0.3-1-0.7-1.4-1c-0.3-0.3-0.7-0.7-1-1v-24.5h-5.3v31.7h4.9v-3.6h0.1
		c0.2,0.3,0.6,0.8,1,1.3c0.5,0.5,1,1,1.6,1.5c0.7,0.5,1.4,0.8,2.3,1.2c0.9,0.3,1.9,0.5,3,0.5c3.6,0,6.2-1.4,7.7-4.2
		c0.3,0.5,0.7,0.9,1.3,1.4c0.6,0.5,1.2,0.9,1.9,1.4c0.7,0.5,1.5,0.8,2.3,1c0.9,0.2,1.9,0.3,2.9,0.3c6.4,0,9.6-3.7,9.6-11.3v-21.3
		H536v20.5c0,2.6-0.5,4.5-1.4,5.6c-0.9,1.2-2.3,1.7-4.1,1.7c-1.5,0-2.8-0.3-3.7-1c-1-0.7-1.7-1.4-2.3-2.1c0.1-0.5,0.1-1,0.2-1.5
		c0-0.6,0.1-1.2,0.1-1.7v-21.4H519.4z M554.8-67.8h-5.3v31.7h5.3V-67.8z M552.1-28.3c-1,0-2,0.3-2.7,1c-0.7,0.7-1,1.6-1,2.8
		c0,1,0.3,2,1,2.7c0.7,0.7,1.5,1,2.7,1c1,0,2-0.3,2.6-1c0.7-0.7,1-1.6,1-2.7c0-1.2-0.3-2.1-1-2.8C554-28,553.2-28.3,552.1-28.3z
		 M580.6-42.1c-0.1,0.1-0.3,0.3-0.6,0.6c-0.2,0.2-0.7,0.6-1,0.8c-0.5,0.2-0.9,0.5-1.6,0.7c-0.6,0.2-1.3,0.3-2.1,0.3
		c-1.2,0-2.2-0.2-3.3-0.6c-1-0.5-1.9-1-2.6-2c-0.7-0.9-1.3-2.1-1.7-3.6c-0.5-1.5-0.6-3.3-0.6-5.3c0-2.3,0.2-4.3,0.6-5.9
		c0.3-1.6,0.9-2.9,1.5-3.8c0.7-0.9,1.5-1.6,2.4-2.1c0.9-0.5,2-0.6,3.1-0.6c1.6,0,2.9,0.2,3.7,0.8c0.8,0.6,1.5,1,1.9,1.4l2.2-3.7
		c-0.2-0.2-0.6-0.6-0.9-0.9c-0.5-0.3-0.9-0.7-1.6-1c-0.7-0.3-1.5-0.7-2.4-0.9c-0.9-0.2-2.1-0.3-3.3-0.3c-1.7,0-3.4,0.2-5,0.8
		c-1.5,0.6-2.9,1.5-4.1,2.8c-1.2,1.3-2.1,3-2.7,5.1c-0.7,2.1-1,4.8-1,7.9c0,3,0.3,5.6,1.2,7.8c0.8,2.1,1.9,3.8,3.1,5.1
		c1.3,1.3,2.7,2.2,4.3,2.8c1.5,0.6,3.1,0.9,4.8,0.9c1.2,0,2.2-0.1,3.1-0.3s1.6-0.5,2.3-0.8c0.7-0.3,1.2-0.7,1.6-1
		c0.5-0.3,0.8-0.7,1-0.9L580.6-42.1z M631.7-67.8h-6.4l-4.1,14.6h-13.8l-4.2-14.6h-5.8l14.9,45.7h4.5L631.7-67.8z M620.1-48.8
		l-3.6,12.6c-0.5,1.6-0.9,3.3-1.3,4.8c-0.3,1.5-0.6,2.8-0.6,3.8h-0.1c0-1-0.2-2.2-0.6-3.7c-0.3-1.5-0.8-3-1.3-4.8L609-48.8
		L620.1-48.8L620.1-48.8z M649.6-40.4h-6.5v-27.4h-5.3v27.4h-3.8v3.6l3.8,0.7v6.4c0,1.7,0.2,3.3,0.7,4.4c0.5,1.3,1.2,2.2,2,3
		c0.8,0.8,1.7,1.4,2.8,1.7s2.2,0.6,3.4,0.6s2.1-0.1,2.9-0.5c0.8-0.3,1.3-0.6,1.6-0.7l-1.2-4.4c-0.2,0.2-0.7,0.3-1.2,0.6
		c-0.5,0.2-1,0.3-1.7,0.3c-1.3,0-2.2-0.3-2.9-1.2c-0.7-0.8-1-2.2-1-4.4v-5.7h7.1L649.6-40.4z M668.3-40.4h-6.5v-27.4h-5.3v27.4h-3.8
		v3.6l3.8,0.7v6.4c0,1.7,0.2,3.3,0.7,4.4c0.5,1.3,1.2,2.2,2,3c0.8,0.8,1.7,1.4,2.8,1.7c1,0.3,2.2,0.6,3.4,0.6s2.1-0.1,2.9-0.5
		c0.8-0.3,1.3-0.6,1.6-0.7l-1.2-4.4c-0.2,0.2-0.7,0.3-1.2,0.6c-0.5,0.2-1,0.3-1.7,0.3c-1.3,0-2.2-0.3-2.9-1.2c-0.7-0.8-1-2.2-1-4.4
		v-5.7h7.1L668.3-40.4z M671.4-59.7c0,1.9,0.3,3.4,1,4.6c0.7,1.3,1.6,2.2,2.8,3c1.2,0.8,2.6,1.3,4.2,1.6c1.6,0.3,3.4,0.5,5.1,0.5
		h1.6v3c0,2.7-0.5,4.5-1.4,5.6c-0.9,1-2.3,1.5-4,1.5s-2.9-0.3-4-1c-1-0.7-1.9-1.3-2.6-1.9l-2.2,3.6c0.3,0.3,0.8,0.7,1.4,1.2
		c0.6,0.5,1.3,0.8,2,1.3c0.8,0.3,1.7,0.7,2.7,1c1,0.2,2.2,0.3,3.5,0.3c3.3,0,5.7-0.9,7.4-2.7c1.6-1.9,2.6-4.8,2.6-8.7v-14.5
		c0-1.4,0-2.7,0.1-4c0.1-1.3,0.2-2.2,0.2-2.6h-5.1l-0.2,3.5l0,0c-0.2-0.3-0.5-0.8-0.8-1.4c-0.3-0.5-0.8-0.9-1.3-1.4
		c-0.6-0.5-1.2-0.8-2-1c-0.7-0.3-1.6-0.5-2.7-0.5c-1.2,0-2.3,0.2-3.4,0.7c-1,0.5-2,1-2.7,1.9c-0.8,0.8-1.4,1.7-1.7,2.8
		C671.6-62.1,671.4-61,671.4-59.7z M681-64c0.7,0,1.4,0.1,2,0.3c0.6,0.2,1,0.5,1.5,0.8c0.5,0.3,0.8,0.7,1,1c0.2,0.3,0.6,0.7,0.8,0.9
		v7l-1.7-0.1c-2.6-0.1-4.5-0.6-5.8-1.3c-1.3-0.8-2-2.1-2-3.8c0-1.6,0.3-2.9,1.2-3.7C678.7-63.6,679.6-64,681-64z M705.1-67.8h-5.3
		v31.7h5.3V-67.8z M702.4-28.3c-1,0-2,0.3-2.7,1c-0.7,0.7-1,1.6-1,2.8c0,1,0.3,2,1,2.7c0.7,0.7,1.5,1,2.7,1c1,0,2-0.3,2.6-1
		c0.7-0.7,1-1.6,1-2.7c0-1.2-0.3-2.1-1-2.8C704.2-28,703.4-28.3,702.4-28.3z M727.1-40.7c-0.1,0.1-0.5,0.2-0.8,0.3
		c-0.5,0.1-1,0.2-1.7,0.2c-1.6,0-3-0.5-4-1.4c-0.9-0.9-1.6-1.9-2-2.9v-23.2h-5.3V-36h4.9v-4.3h0.1c0.2,0.6,0.5,1.3,0.8,1.9
		c0.3,0.6,0.8,1.2,1.3,1.6c0.6,0.5,1.2,0.8,1.9,1s1.6,0.3,2.6,0.3c0.7,0,1.4-0.1,1.9-0.2c0.5-0.1,0.8-0.2,1-0.3L727.1-40.7z
		 M745.8-42.5c-0.3,0.3-1,0.9-2,1.6c-0.9,0.7-2.1,1-3.6,1c-1.4,0-2.4-0.3-3.3-1c-0.7-0.7-1.2-1.5-1.2-2.3c0-1.2,0.3-2.2,1-2.9
		c0.7-0.8,1.7-1.6,3.1-2.4l2-1.2c2.2-1.3,3.8-2.7,5.1-4.2c1.3-1.5,1.9-3.4,1.9-5.7c0-2.6-0.8-4.6-2.6-6.4c-1.7-1.7-4.3-2.6-7.6-2.6
		c-1.3,0-2.4,0.1-3.4,0.3c-0.9,0.2-1.9,0.6-2.6,0.9c-0.7,0.3-1.3,0.7-1.9,1.2c-0.5,0.5-0.9,0.8-1.2,1.2l2.6,4.2
		c0.2-0.2,0.6-0.6,0.9-0.9c0.3-0.3,0.8-0.7,1.4-1c0.6-0.3,1.2-0.6,1.7-0.8c0.7-0.2,1.4-0.3,2.3-0.3c1.6,0,2.8,0.3,3.6,1
		c0.8,0.7,1.3,1.5,1.3,2.6c0,0.7-0.1,1.4-0.3,2c-0.2,0.6-0.5,1-0.9,1.5c-0.3,0.5-0.9,0.8-1.5,1.3c-0.6,0.3-1.3,0.8-2,1.3l-2,1.3
		c-2,1.3-3.5,2.7-4.6,4.1c-1.2,1.4-1.7,3.3-1.7,5.5c0,1.2,0.2,2.3,0.7,3.3c0.5,1,1.2,1.9,2,2.6c0.8,0.7,1.9,1.3,2.9,1.7
		c1.2,0.5,2.3,0.6,3.6,0.6c1.3,0,2.3-0.1,3.1-0.3c0.9-0.2,1.6-0.6,2.3-0.9c0.7-0.3,1.2-0.7,1.6-1.2c0.5-0.3,0.8-0.7,1-0.9
		L745.8-42.5z M273.4-126.4c0,1.9,0.3,3.4,1,4.6s1.6,2.2,2.8,3c1.2,0.8,2.6,1.3,4.2,1.6c1.6,0.3,3.4,0.5,5.1,0.5h1.6v3
		c0,2.7-0.5,4.5-1.4,5.6c-0.9,1-2.3,1.5-4,1.5c-1.6,0-2.9-0.3-4-1c-1-0.7-1.9-1.3-2.6-1.9l-2.2,3.6c0.3,0.3,0.8,0.7,1.4,1.2
		s1.3,0.8,2,1.3c0.7,0.5,1.7,0.7,2.7,1c1,0.2,2.2,0.3,3.5,0.3c3.3,0,5.7-0.9,7.4-2.7c1.6-1.9,2.6-4.8,2.6-8.7v-14.5
		c0-1.4,0-2.7,0.1-4s0.2-2.2,0.2-2.6h-5.1l-0.2,3.5h-0.1c-0.2-0.3-0.5-0.8-0.8-1.4c-0.3-0.5-0.8-0.9-1.3-1.4c-0.6-0.5-1.2-0.8-2-1
		c-0.7-0.3-1.6-0.5-2.7-0.5c-1.2,0-2.3,0.2-3.4,0.7c-1,0.5-2,1-2.7,1.9c-0.8,0.8-1.4,1.7-1.7,2.8
		C273.5-128.8,273.4-127.7,273.4-126.4z M282.9-130.7c0.7,0,1.4,0.1,2,0.3s1,0.5,1.5,0.8c0.5,0.3,0.8,0.7,1,1
		c0.2,0.3,0.6,0.7,0.8,0.9v7l-1.7-0.1c-2.6-0.1-4.5-0.6-5.8-1.3c-1.3-0.8-2-2.1-2-3.8c0-1.6,0.3-2.9,1.2-3.7
		C280.6-130.3,281.6-130.7,282.9-130.7z M318.9-134.5v20.5c0,2.7-0.5,4.6-1.4,5.8c-0.9,1.2-2.3,1.7-4.2,1.7c-1.6,0-2.9-0.3-4-1.2
		c-1-0.8-1.9-1.5-2.6-2.3v-24.5h-5.3v31.7h4.9v-3.6h0.1c0.1,0.2,0.5,0.7,0.8,1.2c0.5,0.5,1,1,1.7,1.5c0.7,0.5,1.5,0.8,2.6,1.3
		c0.9,0.3,2.1,0.6,3.3,0.6c1.4,0,2.7-0.2,3.8-0.6c1.2-0.5,2.1-1,2.9-2c0.8-0.9,1.4-2.1,1.9-3.6c0.5-1.5,0.7-3.3,0.7-5.5v-20.8h-5.2
		V-134.5z M330.8-119.1c0,3.3,0.5,5.9,1.3,8c0.8,2.2,2,4,3.3,5.2c1.3,1.3,2.8,2.2,4.5,2.8c1.6,0.6,3.4,0.8,5,0.8
		c1,0,1.9-0.1,2.7-0.2c0.7-0.1,1.4-0.3,1.9-0.6v15.2l5.3,0.6v-47.4h-4.9v3.4h-0.1c-0.1-0.2-0.3-0.6-0.7-1c-0.3-0.5-0.8-0.9-1.5-1.4
		c-0.6-0.5-1.4-0.8-2.3-1.2s-2-0.5-3.3-0.5c-1.5,0-2.9,0.3-4.3,0.9c-1.4,0.6-2.6,1.5-3.5,2.8c-1,1.3-1.9,3-2.4,5
		C331.1-124.5,330.8-122,330.8-119.1z M343.3-130.6c0.8,0,1.6,0.1,2.2,0.3c0.7,0.2,1.3,0.5,1.7,0.8s0.9,0.7,1.3,1
		c0.3,0.3,0.6,0.7,0.8,0.9v19.6c-0.5,0.3-1,0.6-1.7,0.8c-0.7,0.2-1.4,0.3-2.4,0.3c-1.3,0-2.4-0.2-3.5-0.6c-1-0.5-2-1.2-2.8-2.1
		c-0.8-0.9-1.4-2.2-1.9-3.7s-0.7-3.5-0.7-5.7c0-2.2,0.2-4.1,0.6-5.6s0.9-2.7,1.5-3.6c0.7-0.9,1.4-1.5,2.2-2
		C341.6-130.3,342.4-130.6,343.3-130.6z M400-93.4h-16.3v-15.8h15v-4.5h-15v-16h17.9l-0.3-4.8h-23.4v45.7h22.4L400-93.4z
		 M425.6-134.5v20.5c0,2.7-0.5,4.6-1.4,5.8c-0.9,1.2-2.3,1.7-4.2,1.7c-1.6,0-2.9-0.3-4-1.2c-1-0.8-1.9-1.5-2.6-2.3v-24.5h-5.3v31.7
		h4.9v-3.6h0.1c0.1,0.2,0.5,0.7,0.8,1.2c0.5,0.5,1,1,1.7,1.5c0.7,0.5,1.5,0.8,2.6,1.3c0.9,0.3,2.1,0.6,3.3,0.6
		c1.4,0,2.7-0.2,3.8-0.6c1.2-0.5,2.1-1,2.9-2s1.4-2.1,1.9-3.6s0.7-3.3,0.7-5.5v-20.8h-5.2V-134.5z M459.4-113.5c0-1.4,0-2.6-0.1-3.5
		c-0.1-1-0.2-1.9-0.2-2.6h-16.2c0.2-3.7,0.9-6.5,2.4-8.3c1.4-1.7,3.5-2.7,6.2-2.7c0.9,0,1.7,0.1,2.6,0.3c0.7,0.2,1.4,0.5,2,0.8
		c0.6,0.3,1,0.6,1.4,0.9c0.3,0.3,0.7,0.6,0.8,0.7l2-3.7c-0.2-0.2-0.6-0.6-1-0.9c-0.5-0.5-1-0.8-1.7-1.3c-0.7-0.5-1.6-0.8-2.8-1
		c-1-0.3-2.4-0.5-4-0.5c-2,0-3.8,0.3-5.3,1c-1.6,0.7-3,1.7-4.1,3c-1.2,1.4-2,3.1-2.6,5.3c-0.6,2.1-0.9,4.8-0.9,7.7
		c0,2.8,0.3,5.2,0.9,7.3c0.7,2.1,1.5,3.7,2.6,5.1c1,1.4,2.3,2.3,3.8,2.9c1.5,0.7,3,0.9,4.6,0.9c3,0,5.5-0.9,7.1-2.9
		C458.5-106.7,459.4-109.6,459.4-113.5z M449.3-106.3c-1.9,0-3.4-0.8-4.5-2.3c-1.2-1.6-1.9-3.8-2-6.9h11.6c0,0.2,0.1,0.6,0.1,0.9
		c0,0.5,0,0.8,0,1.4c0,2.2-0.5,4-1.3,5.1C452.2-106.9,450.9-106.3,449.3-106.3z M480.4-107.4c-0.1,0.1-0.5,0.2-0.8,0.3
		c-0.5,0.1-1,0.2-1.7,0.2c-1.6,0-3-0.5-4-1.4s-1.6-1.9-2-2.9v-23.2h-5.3v31.7h4.9v-4.3h0.1c0.2,0.6,0.5,1.3,0.8,1.9
		c0.3,0.6,0.8,1.2,1.3,1.6c0.6,0.5,1.2,0.8,1.9,1s1.6,0.3,2.6,0.3c0.7,0,1.4-0.1,1.9-0.2c0.5-0.1,0.8-0.2,1-0.3L480.4-107.4z
		 M508-106.9h-4c1-1.6,1.5-3.6,1.5-5.7c0-1.6-0.2-3.1-0.8-4.5s-1.3-2.4-2.3-3.4c-1-0.9-2.2-1.6-3.5-2.1c-1.4-0.5-2.8-0.7-4.3-0.7
		c-0.3,0-0.6,0-0.8,0s-0.6,0-0.8,0.1c-0.6-0.2-1-0.6-1.6-1c-0.6-0.5-0.8-1.2-0.8-2c0-0.7,0.2-1.2,0.8-1.6c0.5-0.5,1.3-0.6,2.4-0.6
		h4.1c1.5,0,2.9-0.1,4.2-0.5c1.3-0.3,2.4-0.8,3.4-1.5s1.7-1.5,2.2-2.6c0.6-1,0.8-2.3,0.8-3.8c0-1.7-0.3-3.3-1-4.6
		c-0.7-1.4-1.7-2.7-3-3.6c-1.3-1-2.9-1.9-4.9-2.3c-1.9-0.6-4.1-0.8-6.4-0.8c-3.4,0-5.9,0.7-7.8,2.2c-1.7,1.5-2.7,3.6-2.7,6.4
		c0,1.2,0.2,2.2,0.6,3c0.5,0.8,0.9,1.6,1.5,2.2c0.6,0.7,1.2,1.2,1.7,1.5s1,0.7,1.4,0.9v0.1c-1.4,1-2.1,2.4-2.1,4.4
		c0,0.8,0.1,1.5,0.5,2.2c0.3,0.6,0.7,1.2,1.2,1.5s0.8,0.7,1.3,0.9s0.7,0.5,0.9,0.5v0.1c-1.6,0.7-2.9,2-4,3.5c-1,1.6-1.5,3.7-1.5,6.2
		c0,1.7,0.2,3.4,0.8,4.6c0.6,1.4,1.4,2.4,2.3,3.4c0.9,0.9,2.1,1.5,3.4,2c1.3,0.5,2.7,0.7,4.2,0.7s2.9-0.2,4.2-0.8h9.6L508-106.9z
		 M493.2-133.5c-0.9,0-1.7,0.1-2.4,0.2c-0.3-0.2-0.8-0.5-1.2-0.8c-0.3-0.3-0.7-0.7-1-1.2s-0.6-0.9-0.8-1.5c-0.2-0.6-0.3-1.3-0.3-2.1
		c0-3.4,1.9-5.1,5.6-5.1c3.3,0,5.6,0.6,7.1,1.9c1.5,1.3,2.3,2.7,2.3,4.3c0,1.5-0.5,2.7-1.5,3.3c-0.9,0.7-2.3,0.9-4,0.9h-3.7V-133.5z
		 M500.3-112.5c0,2.3-0.6,4-1.6,4.9c-1,0.9-2.3,1.5-3.8,1.5s-2.9-0.5-4-1.5c-1-0.9-1.6-2.6-1.6-4.9c0-2.3,0.6-4,1.6-4.9
		c1-0.9,2.3-1.5,3.8-1.5s2.9,0.5,4,1.5C499.7-116.5,500.3-114.9,500.3-112.5z M535.3-102.7l-9.9-33.6c-1.2-3.8-2.6-6.9-4.2-8.8
		c-1.6-2-4.1-3-7.2-3c-0.7,0-1.2,0.1-1.6,0.2c-0.5,0.1-0.7,0.2-0.9,0.3v4.6c0.2-0.1,0.5-0.2,0.8-0.3c0.3-0.1,0.8-0.1,1.4-0.1
		c1.9,0,3.4,0.6,4.3,1.7c1,1.2,1.9,3,2.6,5.5l0.5,1.6l-10.2,31.7h5.8l5-17.5c0.5-1.9,0.9-3.5,1.3-5.1c0.3-1.5,0.7-3,0.7-4.2h0.1
		c0.1,1.3,0.3,2.7,0.6,4.2c0.3,1.5,0.7,3.3,1.3,5l4.5,17.7h5.2V-102.7z"/>
</g>
<g id="Adler-und-Saeulenelement">
	<path d="M130.2,101.4c0.1-1.3,0.2-2.6,0.2-3.8c0-0.7,0-1.5-0.1-2.4c11-0.1,20.8-8.1,20.8-17.3c0-4.6-3-8.3-4.8-10.3
		c0.3-0.1,0.8-0.1,1.2-0.2c1.6,1.4,6.3,6.4,6.3,12.8C153.8,90.9,142.9,101.2,130.2,101.4 M119,63c-0.2-1.3-0.7-2.3-1.4-3.3
		c0-1.2,0.5-2.2,2.3-1.3c-0.9,1-0.2,2.8-0.2,2.8s2-0.9,1.6-2.2C124.4,59.7,122.2,63.6,119,63 M116.5,68.6c-0.3-1.6-1.3-3.4-2.3-4.6
		c-0.9-1.2-2.6-2.6-4.8-2.6c-1,0-2.7,0.5-3.7,0.9c-0.3-0.7-1.2-2.4-1.2-3.3s1.4-1.6,4-1.6c5.7,0,9.2,2.6,9.2,7
		C117.6,66.1,117.1,67.5,116.5,68.6 M131.2,142.6c0.7,0,1,0.1,1.4,0.2c1.6,4.5,8,13,8.3,13.4v0.1h0.1c1.5-0.2,5.6-0.8,8.8-0.8h0.1
		c0.3,0,0.8,0,1,0.2c0.2,0.2,0.3,0.6,0.3,1.2c0,0.8-0.3,2.2-0.8,2.9c-1.2-1.3-3-1.9-6-1.9c-0.9,0-2,0.2-2.6,0.5h-0.2l-0.2,0.1
		l1.7,1.7c2.7,2.7,5,5,5,6.6c0,0.9-0.9,2.2-1.7,2.7c-0.2-2.8-3-6.6-5.8-8.7l-0.2-0.2v1c0,0.7-0.1,1.7-0.1,2.8c0,5.5-0.6,6.3-2.4,6.3
		c-0.2,0-0.7-0.1-1-0.2c1-1.3,1.5-3,1.5-6v-1.4v-1.2c0-1.3,0.1-2.2,0.2-2.9v-0.5h-0.3c-0.9-0.1-2.6-0.3-3.7-0.3
		c-2.7,0-4.5,0.2-5.8,1.5c-0.8-0.7-1.7-1.9-1.7-2.7c0-1.2,0.7-1.2,1.6-1.2c0.5,0,0.9,0.1,1.5,0.1c1.2,0.1,2.9,0.5,6.4,0.5h0.2
		l-0.1-0.2c-0.9-2.6-3.4-6.4-7.3-11.2C129.6,143.5,130,142.6,131.2,142.6 M97,155.9l-0.1,0.2h0.2c3.6,0,5.3-0.2,6.4-0.5
		c0.6-0.1,1-0.1,1.5-0.1c0.9,0,1.6,0.1,1.6,1.2c0,0.8-0.9,2-1.7,2.7c-1.3-1.3-3.1-1.5-5.8-1.5c-1.3,0-2.9,0.2-3.7,0.3h-0.1h-0.1v0.5
		c0.1,0.7,0.2,1.6,0.2,2.9v1.2v1.4c0,3,0.5,4.8,1.5,6c-0.2,0.1-0.7,0.2-1,0.2c-1.9,0-2.4-0.8-2.4-6.3c0-1,0-2.1-0.1-2.8v-1l-0.2,0.2
		c-2.8,2.1-5.7,5.9-5.8,8.7c-0.8-0.6-1.7-1.7-1.7-2.7c0-1.5,2.3-3.8,5-6.6l1.5-1.5l0.2-0.2l-0.5-0.1c-0.6-0.1-1.6-0.5-2.6-0.5
		c-3,0-4.9,0.6-6,1.9c-0.5-0.6-0.8-2-0.8-2.9c0-0.6,0.1-0.9,0.3-1.2c0.2-0.2,0.7-0.2,1-0.2h0.1c3.4,0,7.3,0.6,8.8,0.8h0.1v-0.1
		c0.2-0.3,6.6-8.8,8.3-13.4c0.3-0.1,0.7-0.2,1.4-0.2c1.3,0,1.6,0.8,2,2.1C100.3,149.6,97.8,153.3,97,155.9 M79.8,79.9
		c0-6.3,4.6-11.4,6.3-12.8c0.3,0.1,0.8,0.2,1.2,0.2c-1.9,2.2-4.9,5.7-4.9,10.3c0,9.3,9.9,17.3,21.1,17.3c-0.1,0.8-0.1,1.6-0.1,2.4
		c0,1.4,0.1,2.7,0.2,3.8C90.9,101.3,79.8,91,79.8,79.9 M164.8,99.4c5.7,8.9,10.1,8.8,16.8,8.8c-5.6-4.3-9.3-9.8-11-12.6l-10.3-16.6
		c-1-5.1-3.7-10-7.7-13.5c1.4-0.5,2.4-1,3.1-1.5c-6.7,0-13.5-3.5-17.2-3.5c-2.3,0-4,1.4-4,3.3c0.1,2.1,2.3,4.2,6.3,4.2
		c0.9,0,2.1-0.1,3.4-0.3c2.2,3,4,5.7,4,9.6c0,7.3-8.7,13-17.5,13c-0.5,0-0.9,0-1.5,0c-0.8-1.9-3.5-4.9-3.5-8.3
		c0-5.8,3.7-10.5,3.7-16.3c0-3.6-1.7-5.8-2.4-6.7c1-1,2.2-2.2,2.6-3c-0.6,0.2-1.4,0.3-2.4,0.3c-4.2,0-7.7-1-11-1
		c-1.9,0-2.4,0.6-2.4,1.2c0,0.2,0,0.5,0.1,0.5c-0.7-0.2-1.4-0.5-2.2-0.6c-1-0.2-2.1-0.2-3.1-0.2c-4.1,0-5.5,1.7-5.5,3.1
		c0,1.3,0.9,3.5,2.1,5.2c1.6-0.8,3.5-1.4,4.4-1.4c2.2,0,4.1,2.1,5.1,4.5c-1.4,0.2-1.7,0.2-3.3,0.2c-4,0-6.6-1.4-7.2-1.4
		c0,0-0.1,0-0.1,0.1c0,0.6,1.2,2,3.4,2.8c2.9,1,7.3,1.5,8,1.6c0,0.1-0.7,1.5-1.5,1.7c-0.1,0-0.3,0.1-0.5,0c-3-0.6-4-0.8-7.8-2.3
		c-0.1,0-0.2,0-0.2,0.1c0,1.5,4,4.9,7.6,6.2c-3,3.8-6.6,7.7-8.4,13.6c-0.5,0-0.9,0-1.5,0c-8.8,0-17.5-5.7-17.5-13
		c0-3.8,1.7-6.6,4-9.6c1.3,0.2,2.4,0.3,3.4,0.3c4,0,6.2-2.1,6.3-4.2c0-1.9-1.5-3.3-4-3.3c-3.7,0-10.5,3.5-17.2,3.5
		c0.7,0.5,1.7,1,3.1,1.5c-4,3.6-6.6,8.4-7.7,13.5L63,95.7c-1.7,2.8-5.5,8.3-11,12.6c6.7,0,11.2,0.1,16.8-8.8l5.3-8.5
		c0.3,1.2,0.9,2.2,1.4,3.3l-10.7,17c-1.7,2.8-5.5,8.3-11,12.6c6.7,0,11.2,0.1,16.8-8.8l9.2-14.6c0.7,0.7,1.4,1.4,2.2,2.1l-12.9,20.6
		c-1.7,2.8-5.5,8.3-11,12.6c6.7,0,11.2,0.1,16.8-8.8l12.6-20.1c0.8,0.5,1.6,1,2.6,1.5l-15.3,24.5c-1.7,2.8-5.5,8.3-11,12.6
		c6.7,0,11.2,0.1,16.8-8.8L96.4,111c0.9,0.3,1.9,0.7,2.8,1l-17.7,28.4c-1.7,2.8-5.5,8.3-11,12.6c6.7,0,11.2,0.1,16.8-8.8l19.1-30.4
		c0.2,0,0.3,0.1,0.6,0.1c0.5,1.6,0.9,3.1,0.9,4.8c0,9.5-6.3,18-13.8,24.5c0.5,0.2,1.3,0.2,2.1,0.2c1.5,0,2.6-0.1,3.3-0.2
		c-1.7,4-5.5,9.1-7.4,11.7c-2.4-0.5-6-0.8-8.4-0.8c-2.4,0-2.8,1.4-2.8,2.7c0,2.2,1,4,2.2,5c0.5-1.2,1.4-2.7,5.9-2.7
		c0.1,0,0.2,0,0.5,0c-1.3,1.5-5.5,4.9-5.5,7.6c0,1.7,2,4.5,4.5,4.5c-0.1-0.6-0.1-1.2-0.1-1.5c0-2.2,2-4.8,3.6-6.5c0,0.6,0,0.5,0,1
		c0,5.2,0.5,7.6,3.7,7.6c1.6,0,2.7-0.9,3.1-1.2c-2.1-2-2.2-3.5-2.2-6.4c0-0.8,0-1.5,0-2.6c0-0.7,0-1.5-0.1-2.2
		c1.2-0.1,1.6-0.1,2.6-0.1c0,0,4.6-0.3,5.8,2.1c1.3-1.2,3.1-2.8,3.1-4.6c0-1.2-0.6-2.6-3-2.6c-0.9,0-3.7,0.6-6.2,0.6
		c0.7-1.4,3.5-5.6,6-8.7c0.3,1.2,0.9,2.4,2.2,3.5c0.2-2,1.3-8.1,4.4-11.7c0.3,2.4,0.8,5,0.8,10.2c0,12.9-3.1,22.3-9.6,24.2
		c0.8,1.5,2.7,2.8,4.5,2.8c2.4,0,3.7-2.7,5-5.2c0.7,1.9,2.6,6.5,4.5,6.5c2,0,3.8-4.6,4.5-6.5c1.3,2.6,2.7,5.2,5,5.2
		c1.9,0,3.7-1.4,4.5-2.8c-6.6-1.9-9.6-11.3-9.6-24.2c0-5.3,0.5-7.8,0.8-10.2c3,3.6,4.2,9.8,4.4,11.7c1.3-1,1.9-2.3,2.3-3.5
		c2.4,3,5.3,7.2,6,8.7c-2.4,0-5.2-0.6-6.2-0.6c-2.4,0-3,1.4-3,2.6c0,1.9,1.9,3.5,3.1,4.6c1.2-2.4,5.8-2.1,5.8-2.1
		c0.9,0,1.4,0,2.6,0.1c-0.1,0.6-0.1,1.5-0.1,2.2c0,1,0,1.7,0,2.6c0,2.9-0.1,4.4-2.2,6.4c0.3,0.2,1.5,1.2,3.1,1.2
		c3.3,0,3.7-2.3,3.7-7.6c0-0.6,0-0.6,0-1c1.6,1.7,3.6,4.3,3.6,6.5c0,0.3,0,0.9-0.1,1.5c2.6,0,4.5-2.7,4.5-4.5c0-2.7-4.2-6-5.5-7.6
		c0.2,0,0.3,0,0.5,0c4.5,0,5.5,1.5,5.9,2.7c1.2-1,2.2-2.8,2.2-5c0-1.3-0.2-2.7-2.8-2.7c-2.3,0-5.9,0.3-8.4,0.8
		c-1.9-2.7-5.6-7.8-7.4-11.7c0.7,0.1,1.7,0.2,3.3,0.2c0.8,0,1.6-0.1,2.1-0.2c-7.6-6.5-13.8-15-13.8-24.5c0-1.5,0.3-3,0.9-4.8
		c0.2,0,0.3-0.1,0.6-0.1l19.1,30.4c5.7,8.9,10.1,8.8,16.8,8.8c-5.6-4.3-9.3-9.8-11-12.6l-17.8-28.6c0.9-0.3,2-0.7,2.9-1L153,136
		c5.7,8.9,10.1,8.8,16.8,8.8c-5.6-4.3-9.2-9.6-11-12.6l-15.3-24.5c0.8-0.5,1.7-0.9,2.6-1.5l12.6,20.1c5.7,8.9,10.1,8.8,16.8,8.8
		c-5.6-4.3-9.2-9.6-11-12.6l-12.9-20.6c0.8-0.7,1.5-1.4,2.2-2.1l9.2,14.6c5.7,8.9,10.1,8.8,16.8,8.8c-5.6-4.3-9.3-9.8-11-12.6
		l-10.6-17c0.6-1,1-2.1,1.4-3.3L164.8,99.4z"/>
	<path d="M234.9,171.8h-19.4V60.6h19.4V171.8z"/>
	<path class="st1" d="M234.9,283h-19.4V171.8h19.4V283z"/>
	<path class="st2" d="M234.9,394.1h-19.4V282.9h19.4V394.1z"/>
</g>
</svg>
